<svg xmlns="http://www.w3.org/2000/svg" viewBox="0 0 64 64" fill="none" stroke="#111318" stroke-width="2.6" stroke-linecap="round" stroke-linejoin="round">
  <path d="M21 36.5c-2.5 0-4.5-2-4.5-4.5s2-4.5 4.5-4.5"/>
  <path d="M43 36.5c2.5 0 4.5-2 4.5-4.5s-2-4.5-4.5-4.5"/>
  <path d="M21.5 38.5v-7.8c0-6 4.9-10.9 10.9-10.9h.2c6 0 10.9 4.9 10.9 10.9v7.8"/>
  <path d="M21 28.8c-2.6-1.1-3.8-4.2-2.8-6.9.6-1.6 2-2.8 3.6-3.2"/>
  <path d="M43 28.8c2.6-1.1 3.8-4.2 2.8-6.9-.6-1.6-2-2.8-3.6-3.2"/>
  <path d="M24.4 19.8c1-3.3 4.1-5.7 7.8-5.7s6.8 2.4 7.8 5.7"/>
  <path d="M25.2 19.2c-.5-2.3 1-4.6 3.3-5.1"/>
  <path d="M39.2 19.2c.5-2.3-1-4.6-3.3-5.1"/>
  <path d="M27.5 16.8c.8-2.4 3-4.1 5.7-4.1s4.9 1.7 5.7 4.1"/>
  <circle cx="28.5" cy="30.5" r="1" fill="#111318"/>
  <circle cx="35.5" cy="30.5" r="1" fill="#111318"/>
  <path d="M30 34.5c1.2.8 3 .8 4.2 0"/>
  <path d="M23.5 41.2c2.1 2.1 5.1 3.4 8.5 3.4s6.4-1.3 8.5-3.4"/>
  <path d="M15 55v-1.2c0-7.2 5.8-13 13-13h8c7.2 0 13 5.8 13 13V55z"/>
</svg>
