<svg xmlns="http://www.w3.org/2000/svg" viewBox="0 0 64 64" fill="none" stroke="#111318" stroke-width="2.5" stroke-linecap="round" stroke-linejoin="round" aria-hidden="true">
  <path d="M16 30.5c-1.8-1.1-2.9-3.1-2.9-5.2 0-3.2 2.5-5.8 5.7-6.1.5-3 2.8-5.5 5.8-6.2 1.5-2.9 4.6-4.9 8.1-4.9s6.6 2 8.1 4.9c3 .7 5.3 3.1 5.8 6.2 3.2.3 5.7 2.9 5.7 6.1 0 2.1-1.1 4.1-2.9 5.2"/>
  <path d="M19 28.5v7.8c0 7.2 5.8 13 13 13s13-5.8 13-13v-7.8"/>
  <path d="M19 33c-2.1 0-3.8-1.9-3.8-4.3s1.7-4.3 3.8-4.3"/>
  <path d="M45 33c2.1 0 3.8-1.9 3.8-4.3s-1.7-4.3-3.8-4.3"/>
  <path d="M27.2 28.1c1.1-1 2.5-1.3 4-1"/>
  <path d="M36.8 28.1c-1.1-1-2.5-1.3-4-1"/>
  <circle cx="27.6" cy="31.9" r="1" fill="#111318"/>
  <circle cx="36.4" cy="31.9" r="1" fill="#111318"/>
  <path d="M30.4 35.5c.9.6 2.3.6 3.2 0"/>
  <path d="M29.3 39.2c1.8 1.2 4.5 1.2 6.3 0"/>
  <path d="M21.3 49.2c-6.8 1.6-11.8 7.7-11.8 15.1h45c0-7.4-5-13.5-11.8-15.1"/>
  <path d="M22.7 45.7c1.8 2.1 5.2 3.5 9.3 3.5s7.5-1.4 9.3-3.5"/>
  <path d="M17.8 47.2c1.8-.2 3.2-1.7 3.2-3.6 0-1.5-.9-2.8-2.2-3.4"/>
  <path d="M46.2 47.2c-1.8-.2-3.2-1.7-3.2-3.6 0-1.5.9-2.8 2.2-3.4"/>
</svg>
