<svg xmlns="http://www.w3.org/2000/svg" viewBox="0 0 64 64" fill="none" stroke="#111318" stroke-width="2.6" stroke-linecap="round" stroke-linejoin="round">
  <path d="M17 17h30l-9 18H26z"/>
  <path d="M22 22l4 12M27 21l3 13M32 21v13M37 21l-3 13M42 22l-4 12"/>
  <ellipse cx="32" cy="16.8" rx="15" ry="2.8"/>
  <path d="M45 19c4-1 8 2 8 6s-4 7-8 8"/>
  <path d="M22 37h20"/>
  <path d="M20 37h24c2.3 0 3.5 1.7 3.1 3.6L45 49c-.8 3-3.5 5-6.6 5H25.6c-3.1 0-5.8-2-6.6-5l-2.1-8.4c-.5-1.9.8-3.6 3.1-3.6z"/>
  <path d="M45 39h3c3 0 5 2.2 5 5s-2 5-5 5h-3"/>
</svg>
