<svg xmlns="http://www.w3.org/2000/svg" viewBox="0 0 64 64" fill="none" stroke="#111318" stroke-width="2.5" stroke-linecap="round" stroke-linejoin="round" aria-hidden="true">
  <path d="M32 9.2c-6.2 0-11.2 5-11.2 11.2v11.1c0 7 5.2 12.7 11.2 12.7s11.2-5.7 11.2-12.7V20.4c0-6.2-5-11.2-11.2-11.2z"/>
  <path d="M20.8 34.3c-2 0-3.6-1.8-3.6-4s1.6-4 3.6-4"/>
  <path d="M43.2 34.3c2 0 3.6-1.8 3.6-4s-1.6-4-3.6-4"/>
  <path d="M27.2 27.6c1.2-.8 2.6-1 4-.7"/>
  <path d="M36.8 27.6c-1.2-.8-2.6-1-4-.7"/>
  <circle cx="27.8" cy="31.2" r="1" fill="#111318"/>
  <circle cx="36.2" cy="31.2" r="1" fill="#111318"/>
  <path d="M32 30.4l-1 5c-.2 1.1.6 2.1 1.7 2.1h1.1"/>
  <path d="M28.9 40.2c1.7 1.1 4.5 1.1 6.2 0"/>
  <path d="M20.7 49.3c-6.7 1.7-11.7 7.7-11.7 15h46c0-7.3-5-13.3-11.7-15"/>
  <path d="M23.2 45.8c1.8 1.8 5 3 8.8 3s7-1.2 8.8-3"/>
</svg>
